<svg width="263" height="92" viewBox="0 0 263 92" fill="none" xmlns="http://www.w3.org/2000/svg">
<g clip-path="url(#clip0)">
<path d="M30.2673 35.7611V20.654C30.2673 12.8054 36.666 4.72073 44.5527 4.72073C46.4312 4.71685 48.292 5.08033 50.0286 5.79034C51.7653 6.50036 53.3436 7.54298 54.6733 8.85851C56.0029 10.174 57.0579 11.7367 57.7776 13.4569C58.4974 15.1772 58.8679 17.0213 58.8679 18.8837V35.7611" stroke="#7FB628" stroke-miterlimit="10"/>
<path d="M55.9808 22.2181C58.9569 31.0699 50.0285 38.535 50.0285 38.535L33.6003 54.8223L26.1303 45.9705L17.2019 38.5645L33.6599 22.2476C33.6599 22.2476 41.1299 13.3958 50.0881 16.3464L66.4567 0L72.409 5.90122L55.9808 22.2181Z" fill="#55595B"/>
<path d="M49.9988 16.3169L66.427 0L72.3792 5.90122L55.9808 22.2476L49.9988 16.3169Z" fill="#B72618"/>
<path d="M49.9988 16.3172L54.4927 11.8027L60.445 17.704L55.9808 22.2479L49.9988 16.3172Z" fill="#717476"/>
<path d="M19.5234 35.7611V20.654C19.5234 12.8054 25.9519 4.72073 33.8386 4.72073C35.7171 4.71685 37.5779 5.08033 39.3145 5.79034C41.0511 6.50036 42.6295 7.54298 43.9591 8.85851C45.2888 10.174 46.3437 11.7367 47.0635 13.4569C47.7833 15.1772 48.1538 17.0213 48.1538 18.8837V35.7611" stroke="#7FB628" stroke-miterlimit="10"/>
<path d="M58.1832 79.6666H11.4878C11.4878 79.6666 4.3749 79.0175 3.69039 73.7654C3.00588 68.5133 0 26.5557 0 26.5557H80.3553L77.0816 73.7654C77.0816 73.7654 76.6649 79.6666 66.4866 79.6666H58.1832Z" fill="#B72618"/>
<path d="M20.6541 40.4528V64.3823H14.7018V51.5766C14.7882 50.457 14.7882 49.3325 14.7018 48.2129C14.6531 48.0265 14.5602 47.8542 14.4308 47.7105C14.3014 47.5668 14.1392 47.4558 13.9578 47.3868C13.0923 47.1194 12.183 47.0192 11.2793 47.0917H10.6841V44.2591C13.2928 43.822 15.6519 42.4586 17.3208 40.4233L20.6541 40.4528Z" fill="#E5A004"/>
<path d="M34.4935 50.8096C35.3145 51.1266 36.0199 51.6819 36.5173 52.403C37.1502 54.0063 37.3948 55.7344 37.2315 57.4485C37.3045 58.8968 37.1129 60.3462 36.6661 61.7269C36.2297 62.7139 35.4472 63.5105 34.4637 63.9694C33.0912 64.6187 31.5784 64.9227 30.0591 64.8546C28.601 64.916 27.15 64.6222 25.833 63.9989C24.8684 63.5081 24.0789 62.7357 23.5711 61.7859C23.0433 60.3005 22.8207 58.7255 22.9164 57.1535C22.8889 55.8865 22.9986 54.6204 23.2438 53.3767C23.376 52.8177 23.635 52.296 24.0012 51.8512C24.3673 51.4063 24.831 51.0501 25.3568 50.8096C24.6697 50.4315 24.1262 49.8408 23.8092 49.1278C23.4221 48.1929 23.2395 47.1872 23.2735 46.1772C23.2067 45.3272 23.3263 44.473 23.6243 43.6733C23.9223 42.8736 24.3915 42.1474 24.9997 41.5447C26.4617 40.4123 28.2989 39.8648 30.1484 40.0104C31.1291 39.8972 32.1228 39.9827 33.0693 40.2617C34.0157 40.5406 34.8951 41.0072 35.6542 41.6332C36.743 42.9491 37.2857 44.6265 37.172 46.3247C37.2401 47.2833 37.0769 48.2442 36.6958 49.1278C36.1152 49.8623 35.358 50.4405 34.4935 50.8096ZM31.2198 55.6191C31.268 54.9972 31.1765 54.3724 30.9519 53.7898C30.8497 53.6434 30.711 53.5257 30.5493 53.4482C30.3877 53.3706 30.2085 53.3358 30.0293 53.3472C29.8626 53.3362 29.6961 53.3719 29.5487 53.4501C29.4014 53.5284 29.2792 53.6461 29.196 53.7898C28.9685 54.3717 28.8769 54.9971 28.9282 55.6191V58.5698C28.8589 59.2527 28.9612 59.9419 29.2258 60.5762C29.3187 60.7246 29.4514 60.8446 29.609 60.9227C29.7666 61.0009 29.9431 61.0341 30.1186 61.0188C30.295 61.0415 30.4742 61.0116 30.6332 60.9327C30.7923 60.8539 30.924 60.7297 31.0114 60.5762C31.1999 59.9147 31.2704 59.2257 31.2198 58.5402V55.6191ZM31.2198 45.6756C31.2646 45.1358 31.1936 44.5928 31.0114 44.0822C30.9231 43.947 30.798 43.8392 30.6505 43.7714C30.5031 43.7035 30.3394 43.6783 30.1781 43.6987C30.0178 43.6795 29.8554 43.7087 29.7121 43.7824C29.5688 43.856 29.4512 43.9708 29.3746 44.1117C29.194 44.6125 29.123 45.1455 29.1662 45.6756V47.505C29.132 48.0082 29.2134 48.5127 29.4043 48.9803C29.4809 49.1212 29.5985 49.236 29.7419 49.3096C29.8852 49.3833 30.0476 49.4125 30.2079 49.3933C30.3647 49.4114 30.5235 49.385 30.6658 49.3171C30.808 49.2492 30.9279 49.1426 31.0114 49.0098C31.1941 48.4687 31.2649 47.8967 31.2198 47.3279V45.6756Z" fill="#E5A004"/>
<path d="M53.5701 48.5669V56.5335C53.6155 57.8681 53.5157 59.2036 53.2725 60.5169C53.0716 61.3751 52.6514 62.1677 52.0522 62.8184C51.4479 63.5254 50.6684 64.0643 49.7904 64.3822C48.8308 64.6987 47.8256 64.8581 46.8143 64.8543C45.5943 64.8834 44.3778 64.7139 43.2131 64.3527C42.3291 64.0615 41.5453 63.5298 40.9513 62.8184C40.4092 62.1624 39.9954 61.4119 39.7311 60.6054C39.4455 59.3975 39.3253 58.1569 39.3739 56.9171V48.5669C39.2999 46.9051 39.4907 45.2422 39.9394 43.6394C40.3621 42.5131 41.1741 41.5721 42.231 40.9838C43.4978 40.2996 44.926 39.9635 46.3678 40.0101C47.5826 39.9951 48.7878 40.226 49.9094 40.6888C50.8126 41.0637 51.617 41.639 52.2606 42.3706C52.7724 43.0316 53.1283 43.7978 53.3022 44.6131C53.5191 45.9195 53.6088 47.2435 53.5701 48.5669ZM47.6178 46.5605C47.615 45.7841 47.5151 45.011 47.3202 44.259C47.2442 44.0941 47.1157 43.9585 46.9543 43.8732C46.793 43.7879 46.6078 43.7576 46.4274 43.7869C45.9809 43.7869 45.6833 43.7869 45.5643 44.2885C45.356 45.0573 45.2755 45.8546 45.3262 46.649V58.4514C45.2772 59.293 45.3473 60.1372 45.5345 60.9595C45.6169 61.1106 45.7433 61.2337 45.8973 61.3126C46.0512 61.3916 46.2256 61.4227 46.3976 61.4021C46.5804 61.4196 46.7642 61.3809 46.924 61.2911C47.0838 61.2014 47.2117 61.0649 47.2904 60.9004C47.4812 60.1589 47.5516 59.392 47.4988 58.6285L47.6178 46.5605Z" fill="#E5A004"/>
<path d="M69.8794 48.5669V56.5335C69.9248 57.8681 69.825 59.2035 69.5818 60.5169C69.3333 61.3843 68.8875 62.1838 68.2787 62.8539C67.6699 63.5239 66.9143 64.0467 66.07 64.3822C65.1111 64.7018 64.1054 64.8613 63.0939 64.8543C61.8838 64.8801 60.6776 64.7107 59.5225 64.3526C58.6297 64.0621 57.8362 63.5308 57.2309 62.8183C56.6976 62.1612 56.2938 61.4105 56.0404 60.6054C55.7548 59.3975 55.6347 58.1569 55.6833 56.9171V48.5669C55.6092 46.9051 55.8001 45.2422 56.2487 43.6394C56.6597 42.5063 57.4749 41.5617 58.5404 40.9838C59.8072 40.2996 61.2354 39.9635 62.6772 40.0101C63.892 39.9951 65.0971 40.226 66.2188 40.6888C67.1196 41.0529 67.9166 41.6304 68.5402 42.3706C69.0728 43.0225 69.4402 43.7915 69.6116 44.6131C69.8285 45.9195 69.9182 47.2435 69.8794 48.5669ZM63.9272 46.5605C63.9831 45.7579 63.9128 44.9516 63.7188 44.1705C63.7188 43.8459 63.3319 43.6984 62.8558 43.6984C62.6724 43.6763 62.4867 43.7131 62.326 43.8033C62.1653 43.8936 62.038 44.0327 61.9629 44.2C61.7871 44.974 61.717 45.768 61.7546 46.5605V58.3629C61.6891 59.2046 61.7594 60.0512 61.9629 60.8709C62.042 61.0249 62.1678 61.1505 62.3227 61.2299C62.4775 61.3093 62.6535 61.3385 62.826 61.3135C63.0088 61.3311 63.1926 61.2924 63.3524 61.2026C63.5121 61.1128 63.6401 60.9764 63.7188 60.8119C63.8939 60.0678 63.964 59.3032 63.9272 58.54V46.5605Z" fill="#E5A004"/>
<path d="M102.795 79.3716C100.491 79.3903 98.2054 78.9592 96.0691 78.1028C94.035 77.3083 92.2702 75.9577 90.9799 74.208C89.6216 72.3068 88.9314 70.0155 89.0157 67.6871C88.9001 65.8277 89.3791 63.9794 90.3847 62.4056C91.1867 61.1999 92.3385 60.2637 93.6882 59.7205C94.8911 59.2477 96.174 59.0074 97.4679 59.0124C96.3119 60.2311 95.3936 61.6517 94.7596 63.2022C94.1543 64.6525 93.8409 66.2061 93.837 67.7757C93.828 69.3434 94.1952 70.8908 94.9084 72.2901C95.6786 73.6669 96.8232 74.8017 98.2119 75.5653C99.9614 76.4758 101.922 76.9134 103.896 76.834C105.883 76.835 107.852 76.4646 109.7 75.7423C111.495 75.0887 113.093 73.9919 114.342 72.5557C115.529 71.0638 116.141 69.202 116.069 67.3036C116.106 65.5789 115.596 63.8862 114.61 62.4646C113.615 61.1203 112.398 59.9531 111.009 59.0124C109.491 57.9796 108.033 56.9764 106.158 56.0617C104.488 55.1671 102.868 54.182 101.307 53.1111C99.8607 52.1049 98.6019 50.8568 97.5869 49.4229C96.5975 47.9259 96.0891 46.1667 96.1286 44.3773C96.119 42.2972 96.5765 40.2411 97.4679 38.3581C98.3759 36.2659 99.6336 34.3406 101.188 32.6634C102.866 30.8441 104.888 29.3702 107.14 28.326C109.567 27.147 112.236 26.541 114.938 26.5557C115.919 26.4448 116.912 26.5543 117.845 26.8761C118.777 27.1979 119.625 27.7237 120.324 28.4145C121.369 29.7539 121.906 31.4142 121.842 33.106C121.845 34.8892 121.563 36.6617 121.009 38.3581C120.483 40.0864 119.826 41.773 119.045 43.4036C118.241 45.056 117.497 46.3542 116.813 47.564C116.475 47.5113 116.152 47.393 115.86 47.2157C115.569 47.0385 115.316 46.8059 115.116 46.5313C114.781 46.0023 114.615 45.3851 114.64 44.7609C114.662 43.6858 114.853 42.6207 115.206 41.6038C115.622 40.4235 116.069 39.2138 116.575 37.945C117.081 36.6762 117.527 35.4665 117.914 34.2567C118.295 33.2157 118.496 32.1184 118.509 31.0111C118.525 30.6375 118.465 30.2646 118.332 29.9148C118.199 29.5649 117.996 29.2453 117.735 28.9752C116.873 28.3632 115.813 28.0899 114.759 28.208C112.762 28.2072 110.797 28.7043 109.045 29.6538C107.285 30.5945 105.712 31.8442 104.402 33.3421C103.171 34.7655 102.168 36.3676 101.426 38.0925C100.748 39.495 100.373 41.0227 100.325 42.5775C100.286 44.0887 100.793 45.5641 101.753 46.7378C102.765 47.9766 103.983 49.0344 105.355 49.8655C106.872 50.8097 108.331 51.7539 110.146 52.8161C111.822 53.7239 113.424 54.7598 114.938 55.9142C116.397 57.0167 117.638 58.3771 118.598 59.927C119.576 61.6542 120.059 63.6128 119.997 65.5922C120.029 67.6581 119.505 69.695 118.479 71.4934C117.473 73.2282 116.09 74.7198 114.432 75.8603C112.73 77.0309 110.851 77.9272 108.866 78.5159C106.898 79.1021 104.851 79.3906 102.795 79.3716Z" fill="#B72618"/>
<path d="M120.593 91.9997C120.394 91.9816 120.201 91.9223 120.027 91.8257C119.852 91.7292 119.7 91.5975 119.581 91.4391C119.265 91.086 119.004 90.6882 118.807 90.2589C118.687 90.0248 118.597 89.7771 118.539 89.5212C119.164 87.3673 119.759 85.4789 120.354 83.797C120.95 82.1152 121.545 80.4038 122.14 78.6335C122.735 76.8631 123.331 74.7977 123.896 72.4077C124.462 70.0177 125.057 67.0966 125.682 63.5558C126.307 60.0151 126.902 55.6482 127.527 50.4256C127.535 50.1255 127.617 49.8319 127.765 49.57C128.063 49.3732 128.422 49.2894 128.777 49.3339C129.229 49.2963 129.685 49.3618 130.108 49.5255C130.531 49.6891 130.91 49.9466 131.217 50.2781C131.68 50.8574 131.932 51.5749 131.932 52.314C131.884 53.4137 131.755 54.5084 131.545 55.5892C131.277 57.153 130.89 59.0119 130.414 61.1363C131.231 59.6112 132.166 58.1512 133.211 56.7694C134.299 55.3561 135.605 54.1214 137.08 53.1107C138.459 52.1278 140.115 51.6012 141.812 51.6059C142.715 51.579 143.613 51.7502 144.441 52.1072C145.27 52.4643 146.008 52.9984 146.604 53.6713C147.892 55.1499 148.563 57.06 148.479 59.0119C148.448 60.8693 148.054 62.7032 147.318 64.4115C146.519 66.3484 145.436 68.1578 144.104 69.7816C142.733 71.4023 141.067 72.7534 139.193 73.765C137.275 74.8227 135.109 75.362 132.914 75.3288C131.976 75.3622 131.039 75.2324 130.146 74.9452C129.461 74.6796 129.104 74.4141 129.104 74.1485C129.104 73.883 129.104 73.883 129.58 73.8535H130.741C132.508 73.8566 134.248 73.4204 135.801 72.5847C139.076 70.8171 141.647 67.9972 143.092 64.5886C143.805 62.9996 144.18 61.282 144.193 59.543C144.232 58.3036 143.923 57.0778 143.3 56.0023C143.009 55.4905 142.57 55.0766 142.04 54.8138C141.51 54.5509 140.912 54.4511 140.324 54.527C139.113 54.5425 137.932 54.912 136.932 55.5892C135.76 56.3702 134.69 57.2919 133.747 58.3333C132.822 59.4782 131.986 60.6915 131.247 61.9625C130.563 62.9784 129.975 64.0551 129.491 65.1787C128.717 68.4539 127.914 71.611 127.11 74.6206C126.307 77.6303 125.563 80.5218 124.848 82.8528C124.134 85.1838 123.45 87.3377 122.854 88.9016C122.566 89.9695 122.071 90.9717 121.396 91.8522C121.154 91.9938 120.87 92.0461 120.593 91.9997Z" fill="#B72618"/>
<path d="M155.264 75.3881C154.545 75.4408 153.823 75.3208 153.16 75.0383C152.497 74.7558 151.912 74.3192 151.455 73.7653C150.573 72.6601 150.119 71.2786 150.175 69.8705C150.224 68.5948 150.413 67.3283 150.741 66.0937C151.148 64.4649 151.645 62.8594 152.229 61.2842C152.835 59.6547 153.55 58.0676 154.372 56.5337C155.074 55.2113 155.955 53.9903 156.991 52.9045C157.663 52.1092 158.626 51.6106 159.669 51.5177C160.048 51.5078 160.418 51.6335 160.711 51.8718C160.856 52.0128 160.969 52.1835 161.041 52.372C161.113 52.5606 161.142 52.7624 161.127 52.9635C160.984 53.8734 160.639 54.7402 160.116 55.501C159.431 56.6812 158.627 58.0385 157.705 59.5433C156.777 61.0825 155.971 62.6904 155.294 64.3528C154.646 65.876 154.303 67.5094 154.282 69.1623C154.157 70.2629 154.432 71.3716 155.056 72.29C155.389 72.5776 155.776 72.7963 156.195 72.9332C156.614 73.07 157.057 73.1222 157.497 73.0866C159.321 72.9396 161.027 72.1306 162.288 70.8147C164.53 68.5682 166.344 65.9394 167.645 63.0546L168.24 63.7037C167.244 67.0251 165.338 70.0076 162.735 72.3195C160.705 74.2107 158.048 75.3019 155.264 75.3881ZM163.181 45.4689C162.516 45.483 161.863 45.2979 161.306 44.9378C161.032 44.7675 160.809 44.5266 160.663 44.2408C160.516 43.9549 160.45 43.635 160.473 43.315C160.513 42.8139 160.682 42.3313 160.963 41.913C161.244 41.4947 161.629 41.1546 162.08 40.925C163.031 40.2906 164.147 39.9422 165.294 39.9218C165.854 39.8982 166.407 40.0533 166.871 40.3644C167.083 40.5636 167.247 40.8078 167.35 41.0786C167.453 41.3494 167.493 41.6399 167.467 41.9282C167.433 42.4026 167.292 42.8635 167.055 43.277C166.818 43.6906 166.491 44.0464 166.098 44.3182C165.302 45.0463 164.263 45.4563 163.181 45.4689Z" fill="#B72618"/>
<path d="M177.794 75.388C176.513 75.4615 175.253 75.0383 174.282 74.2077C173.871 73.8332 173.544 73.3767 173.324 72.8682C173.103 72.3596 172.993 71.8106 173.002 71.2571C173.02 69.8415 173.334 68.4449 173.925 67.1558C174.52 65.71 175.145 64.2052 175.74 62.8774C176.282 61.6682 176.575 60.3643 176.603 59.0416C176.629 58.494 176.536 57.9473 176.331 57.4383C176.125 56.9293 175.812 56.4699 175.413 56.091C174.579 55.4222 173.746 54.8025 172.913 54.2321C171.901 56.7991 170.859 59.2481 169.758 61.5496C168.657 63.8511 167.764 65.5919 167.05 66.7722L166.455 65.651C167.089 64.5297 167.893 62.8774 168.865 60.6939C169.837 58.5105 170.829 56.032 171.841 53.2584C171.628 53.0517 171.459 52.8035 171.347 52.5294C171.234 52.2552 171.179 51.961 171.187 51.6651C171.134 50.5031 171.528 49.3645 172.288 48.4784C173.032 47.6522 173.597 47.2392 173.954 47.2392C174.049 47.2224 174.146 47.2255 174.239 47.2483C174.332 47.2711 174.42 47.313 174.495 47.3715C174.571 47.4299 174.634 47.5035 174.679 47.5874C174.724 47.6714 174.751 47.7639 174.758 47.8588C174.79 48.1727 174.79 48.489 174.758 48.803C174.7 49.244 174.569 49.6726 174.371 50.0717C174.214 50.4427 174.094 50.8281 174.014 51.2225C174.04 51.561 174.148 51.8882 174.329 52.176C174.511 52.4639 174.76 52.7037 175.056 52.8748L177.377 54.5862C178.281 55.2221 179.075 55.9993 179.728 56.8876C180.44 57.885 180.796 59.0896 180.74 60.3104C180.727 61.6763 180.454 63.0276 179.936 64.2937C179.371 65.651 178.835 66.9197 178.27 68.159C177.778 69.1547 177.495 70.2386 177.436 71.3456C177.398 71.6347 177.432 71.9287 177.536 72.2016C177.64 72.4744 177.81 72.7175 178.032 72.9094C178.446 73.182 178.933 73.3258 179.43 73.3225C180.592 73.2794 181.721 72.9333 182.704 72.3193C183.879 71.6214 184.968 70.7896 185.948 69.8408C187.029 68.8746 188.025 67.8183 188.924 66.6837C189.665 65.7295 190.284 64.689 190.77 63.5855L191.633 64.2347C190.741 66.1694 189.59 67.9758 188.21 69.6048C186.799 71.2335 185.142 72.6368 183.299 73.7651C181.661 74.822 179.748 75.3856 177.794 75.388Z" fill="#B72618"/>
<path d="M194.073 75.388C193.353 75.4381 192.632 75.317 191.97 75.0347C191.307 74.7524 190.722 74.3171 190.264 73.7651C189.41 72.6466 188.969 71.2721 189.014 69.8703C189.047 68.5933 189.237 67.3251 189.579 66.0935C189.976 64.4651 190.463 62.8596 191.037 61.2841C191.643 59.6546 192.359 58.0675 193.18 56.5336C193.892 55.2174 194.773 53.9977 195.799 52.9043C196.136 52.5072 196.548 52.1801 197.013 51.9421C197.478 51.7041 197.986 51.5598 198.507 51.5175C198.876 51.5121 199.235 51.6377 199.519 51.8716C199.67 52.0087 199.786 52.1789 199.858 52.3684C199.931 52.558 199.957 52.7618 199.936 52.9633C199.793 53.8732 199.447 54.7401 198.924 55.5009C198.239 56.6811 197.436 58.0384 196.513 59.5432C195.586 61.0823 194.78 62.6903 194.103 64.3527C193.469 65.8803 193.126 67.5109 193.091 69.1622C192.958 70.2675 193.244 71.3823 193.894 72.2898C194.225 72.5804 194.612 72.8009 195.032 72.9379C195.451 73.0749 195.895 73.1255 196.335 73.0865C198.146 72.9456 199.842 72.1472 201.097 70.844C203.339 68.5923 205.163 65.9651 206.483 63.0839L207.079 63.7331C206.071 67.0494 204.167 70.029 201.573 72.3488C199.524 74.2244 196.86 75.3036 194.073 75.388ZM201.989 45.4688C201.325 45.4828 200.671 45.2977 200.114 44.9377C199.84 44.7674 199.618 44.5265 199.471 44.2406C199.324 43.9548 199.259 43.6348 199.281 43.3149C199.324 42.8108 199.498 42.3262 199.784 41.9077C200.071 41.4891 200.461 41.1507 200.918 40.9249C201.861 40.2959 202.966 39.9478 204.102 39.9217C204.663 39.8937 205.217 40.0493 205.68 40.3642C205.892 40.5635 206.055 40.8077 206.158 41.0785C206.261 41.3493 206.301 41.6398 206.275 41.9281C206.243 42.3995 206.106 42.8581 205.874 43.2712C205.643 43.6843 205.322 44.0417 204.936 44.3181C204.126 45.0411 203.079 45.4497 201.989 45.4688Z" fill="#B72618"/>
<path d="M210.829 76.7156C210.027 76.7654 209.224 76.6437 208.475 76.3586C207.725 76.0734 207.046 75.6317 206.484 75.0632C205.377 73.6993 204.835 71.9697 204.966 70.2242C205.035 67.8297 205.395 65.4521 206.037 63.1428C206.781 60.3397 207.674 57.4481 208.775 54.4975L207.525 54.2615C207.141 54.1944 206.762 54.0957 206.394 53.9664V52.7861H207.674L209.311 52.9337C210.233 50.5732 211.216 48.3012 212.287 46.0883C213.358 43.8753 214.37 41.9279 215.263 40.1871C216.112 38.723 217.109 37.3487 218.239 36.0857C219.192 35.053 219.995 34.5514 220.65 34.5514C221.001 34.5468 221.341 34.6731 221.602 34.9055C221.756 35.0351 221.876 35.1989 221.954 35.3835C222.032 35.5681 222.064 35.7683 222.049 35.9677C221.846 37.2616 221.369 38.4984 220.65 39.5969C219.727 41.2788 218.596 43.2852 217.227 45.4981C215.858 47.7111 214.549 50.3076 213.269 52.9927H215.71C217.168 52.9927 218.686 52.9927 220.293 52.9927C221.9 52.9927 223.507 52.8452 225.144 52.6681V53.8484C222.733 54.1139 220.561 54.3205 218.656 54.4385C216.751 54.5565 215.025 54.645 213.537 54.645H212.555C211.569 57.0274 210.744 59.4719 210.085 61.9625C209.414 64.2751 209.064 66.6673 209.043 69.0735C208.935 70.4751 209.234 71.878 209.906 73.1158C210.253 73.5566 210.71 73.9 211.232 74.1122C211.754 74.3243 212.323 74.3979 212.882 74.3256C215.422 74.2308 217.829 73.1749 219.608 71.375C222.101 69.0524 224.121 66.278 225.561 63.2018L226.424 63.8509C225.403 66.2231 224.061 68.4466 222.436 70.4603C220.952 72.3065 219.148 73.8753 217.108 75.0928C215.207 76.1998 213.033 76.7616 210.829 76.7156Z" fill="#B72618"/>
<path d="M230.918 77.0405C229.177 77.12 227.456 76.6444 226.007 75.6833C224.849 74.8509 223.96 73.7028 223.448 72.3786C222.946 71.1296 222.683 69.7987 222.674 68.4543C222.623 67.4431 222.806 66.4338 223.209 65.5037C223.496 64.8756 223.936 64.3281 224.489 63.9103C224.95 63.6105 225.439 63.3537 225.948 63.1432C226.298 63.0329 226.623 62.8521 226.9 62.6121C228.202 61.1821 229.414 59.6745 230.531 58.0976C231.661 56.531 232.657 54.8728 233.507 53.1406V52.3439C233.409 51.1441 233.701 49.9446 234.34 48.9212C234.536 48.6317 234.796 48.3907 235.1 48.2167C235.405 48.0428 235.745 47.9406 236.096 47.918C236.237 47.9064 236.378 47.924 236.511 47.9697C236.645 48.0155 236.767 48.0883 236.87 48.1836C236.954 48.2579 237.021 48.3488 237.067 48.4505C237.113 48.5521 237.137 48.6622 237.138 48.7737C237.115 49.1233 237.056 49.4695 236.959 49.8064C236.801 50.403 236.731 51.0192 236.751 51.6358C236.783 53.2257 237.075 54.8 237.614 56.2978C238.169 57.9894 238.735 59.7598 239.31 61.6089C239.896 63.5217 240.186 65.5112 240.173 67.5101C240.204 68.0604 240.204 68.6121 240.173 69.1624C240.111 69.6803 240.012 70.193 239.876 70.6967C241.427 70.3253 242.859 69.5746 244.042 68.5133C245.702 67.0073 247.047 65.1928 248.001 63.1727L248.596 63.8218C247.93 65.975 246.623 67.8779 244.846 69.2804C243.235 70.4808 241.357 71.2801 239.37 71.6114C238.786 73.3282 237.604 74.7824 236.037 75.7128C234.484 76.6085 232.714 77.0676 230.918 77.0405ZM230.918 74.7391C231.648 74.6873 232.364 74.5075 233.031 74.208C233.544 73.9394 233.991 73.5623 234.341 73.1034C234.69 72.6445 234.934 72.115 235.054 71.5524C233.267 71.2193 231.584 70.471 230.144 69.369C228.891 68.4891 227.812 67.389 226.959 66.1233C225.977 66.1233 225.501 66.92 225.501 68.3953C225.499 69.9642 225.999 71.4933 226.93 72.7622C227.381 73.4255 228.001 73.9581 228.728 74.3055C229.455 74.6529 230.262 74.8025 231.066 74.7391H230.918ZM235.382 70.4902C235.382 70.0476 235.382 69.605 235.59 69.1329C235.798 68.6608 235.59 68.0707 235.59 67.4216C235.68 65.3741 235.52 63.3233 235.114 61.3138C234.608 59.2779 234.162 57.3895 233.804 55.5896C232.793 57.242 231.751 58.8353 230.62 60.3401C229.65 61.663 228.586 62.9153 227.436 64.0874C228.144 65.5852 229.157 66.9213 230.412 68.0117C231.871 69.2664 233.635 70.1208 235.531 70.4902H235.382Z" fill="#B72618"/>
<path d="M249.577 62.4058C250.941 62.4058 252.047 61.3094 252.047 59.9568C252.047 58.6043 250.941 57.5078 249.577 57.5078C248.213 57.5078 247.107 58.6043 247.107 59.9568C247.107 61.3094 248.213 62.4058 249.577 62.4058Z" fill="url(#paint0_linear)"/>
<path d="M257.524 54.704C259.283 54.704 260.709 53.2904 260.709 51.5468C260.709 49.8032 259.283 48.3896 257.524 48.3896C255.765 48.3896 254.34 49.8032 254.34 51.5468C254.34 53.2904 255.765 54.704 257.524 54.704Z" fill="url(#paint1_linear)"/>
<path d="M240.739 35.2005C242.497 35.2005 243.923 33.787 243.923 32.0434C243.923 30.2997 242.497 28.8862 240.739 28.8862C238.98 28.8862 237.554 30.2997 237.554 32.0434C237.554 33.787 238.98 35.2005 240.739 35.2005Z" fill="url(#paint2_linear)"/>
<path d="M249.578 45.0849C251.764 45.0849 253.536 43.328 253.536 41.1606C253.536 38.9933 251.764 37.2363 249.578 37.2363C247.392 37.2363 245.62 38.9933 245.62 41.1606C245.62 43.328 247.392 45.0849 249.578 45.0849Z" fill="url(#paint3_linear)"/>
<path d="M249.577 26.4666C252.602 26.4666 255.054 24.0359 255.054 21.0375C255.054 18.0391 252.602 15.6084 249.577 15.6084C246.553 15.6084 244.101 18.0391 244.101 21.0375C244.101 24.0359 246.553 26.4666 249.577 26.4666Z" fill="url(#paint4_linear)"/>
<path d="M257.524 10.8582C260.548 10.8582 263 8.42754 263 5.42912C263 2.4307 260.548 0 257.524 0C254.5 0 252.048 2.4307 252.048 5.42912C252.048 8.42754 254.5 10.8582 257.524 10.8582Z" fill="url(#paint5_linear)"/>
</g>
<defs>
<linearGradient id="paint0_linear" x1="247.107" y1="59.9568" x2="252.047" y2="59.9568" gradientUnits="userSpaceOnUse">
<stop stop-color="#FFEF26"/>
<stop offset="0.02" stop-color="#FFEA21"/>
<stop offset="0.1" stop-color="#FED70F"/>
<stop offset="0.19" stop-color="#FDCC04"/>
<stop offset="0.28" stop-color="#FDC800"/>
<stop offset="0.67" stop-color="#E95F32"/>
<stop offset="1" stop-color="#E3312D"/>
</linearGradient>
<linearGradient id="paint1_linear" x1="254.34" y1="51.5468" x2="260.709" y2="51.5468" gradientUnits="userSpaceOnUse">
<stop stop-color="#FFEF26"/>
<stop offset="0.02" stop-color="#FFEA21"/>
<stop offset="0.1" stop-color="#FED70F"/>
<stop offset="0.19" stop-color="#FDCC04"/>
<stop offset="0.28" stop-color="#FDC800"/>
<stop offset="0.67" stop-color="#E95F32"/>
<stop offset="1" stop-color="#E3312D"/>
</linearGradient>
<linearGradient id="paint2_linear" x1="237.554" y1="32.0434" x2="243.923" y2="32.0434" gradientUnits="userSpaceOnUse">
<stop stop-color="#FFEF26"/>
<stop offset="0.02" stop-color="#FFEA21"/>
<stop offset="0.1" stop-color="#FED70F"/>
<stop offset="0.19" stop-color="#FDCC04"/>
<stop offset="0.28" stop-color="#FDC800"/>
<stop offset="0.67" stop-color="#E95F32"/>
<stop offset="1" stop-color="#E3312D"/>
</linearGradient>
<linearGradient id="paint3_linear" x1="245.62" y1="41.1606" x2="253.536" y2="41.1606" gradientUnits="userSpaceOnUse">
<stop stop-color="#FFEF26"/>
<stop offset="0.02" stop-color="#FFEA21"/>
<stop offset="0.1" stop-color="#FED70F"/>
<stop offset="0.19" stop-color="#FDCC04"/>
<stop offset="0.28" stop-color="#FDC800"/>
<stop offset="0.67" stop-color="#E95F32"/>
<stop offset="1" stop-color="#E3312D"/>
</linearGradient>
<linearGradient id="paint4_linear" x1="244.101" y1="21.0375" x2="255.054" y2="21.0375" gradientUnits="userSpaceOnUse">
<stop stop-color="#FFEF26"/>
<stop offset="0.02" stop-color="#FFEA21"/>
<stop offset="0.1" stop-color="#FED70F"/>
<stop offset="0.19" stop-color="#FDCC04"/>
<stop offset="0.28" stop-color="#FDC800"/>
<stop offset="0.67" stop-color="#E95F32"/>
<stop offset="1" stop-color="#E3312D"/>
</linearGradient>
<linearGradient id="paint5_linear" x1="252.048" y1="5.42912" x2="263" y2="5.42912" gradientUnits="userSpaceOnUse">
<stop stop-color="#FFEF26"/>
<stop offset="0.02" stop-color="#FFEA21"/>
<stop offset="0.1" stop-color="#FED70F"/>
<stop offset="0.19" stop-color="#FDCC04"/>
<stop offset="0.28" stop-color="#FDC800"/>
<stop offset="0.67" stop-color="#E95F32"/>
<stop offset="1" stop-color="#E3312D"/>
</linearGradient>
<clipPath id="clip0">
<rect width="263" height="92" fill="white"/>
</clipPath>
</defs>
</svg>
