<svg width="120" height="44" viewBox="0 0 120 44" fill="none" xmlns="http://www.w3.org/2000/svg">
<g clip-path="url(#clip0)">
<path d="M13.8101 16.806V9.70644C13.8101 6.01799 16.7296 2.21861 20.3281 2.21861C21.1852 2.21679 22.0343 2.3876 22.8266 2.72127C23.619 3.05494 24.3391 3.54492 24.9458 4.16316C25.5525 4.78139 26.0339 5.51574 26.3623 6.32417C26.6907 7.1326 26.8597 7.99924 26.8597 8.87446V16.806" stroke="#7FB628" stroke-miterlimit="10"/>
<path d="M25.5425 10.4414C26.9005 14.6013 22.8267 18.1095 22.8267 18.1095L15.3309 25.7637L11.9225 21.6038L7.84875 18.1233L15.3581 10.4552C15.3581 10.4552 18.7665 6.29532 22.8538 7.68196L30.3224 0L33.0383 2.77327L25.5425 10.4414Z" fill="#55595B"/>
<path d="M22.8131 7.66809L30.3089 0L33.0247 2.77327L25.5425 10.4552L22.8131 7.66809Z" fill="#B72618"/>
<path d="M22.8131 7.66809L24.8636 5.54654L27.5794 8.31981L25.5425 10.4552L22.8131 7.66809Z" fill="#717476"/>
<path d="M8.90796 16.806V9.70644C8.90796 6.01799 11.8411 2.21861 15.4396 2.21861C16.2967 2.21679 17.1457 2.3876 17.9381 2.72127C18.7305 3.05494 19.4506 3.54492 20.0573 4.16316C20.664 4.78139 21.1454 5.51574 21.4738 6.32417C21.8022 7.1326 21.9712 7.99923 21.9712 8.87446V16.806" stroke="#7FB628" stroke-miterlimit="10"/>
<path d="M26.5475 37.4392H5.2416C5.2416 37.4392 1.99615 37.1341 1.68383 34.6659C1.37151 32.1977 0 12.4798 0 12.4798H36.664L35.1703 34.6659C35.1703 34.6659 34.9802 37.4392 30.3361 37.4392H26.5475Z" fill="#B72618"/>
<path d="M9.42393 19.0108V30.2564H6.70808V24.2384C6.74746 23.7122 6.74746 23.1838 6.70808 22.6576C6.68586 22.57 6.64345 22.489 6.58441 22.4215C6.52536 22.354 6.45137 22.3018 6.3686 22.2694C5.97366 22.1437 5.55878 22.0966 5.14646 22.1307H4.87488V20.7995C6.06516 20.5941 7.14155 19.9534 7.90306 18.9969L9.42393 19.0108Z" fill="#E5A004"/>
<path d="M15.7384 23.8778C16.113 24.0268 16.4348 24.2877 16.6618 24.6266C16.9505 25.3801 17.0621 26.1922 16.9877 26.9977C17.0209 27.6783 16.9335 28.3595 16.7297 29.0084C16.5305 29.4722 16.1735 29.8466 15.7248 30.0622C15.0985 30.3674 14.4083 30.5102 13.7151 30.4782C13.0498 30.5071 12.3877 30.369 11.7868 30.0761C11.3467 29.8454 10.9865 29.4824 10.7548 29.0361C10.514 28.338 10.4124 27.5978 10.456 26.8591C10.4435 26.2637 10.4935 25.6687 10.6054 25.0842C10.6657 24.8215 10.7839 24.5763 10.951 24.3673C11.1181 24.1582 11.3296 23.9908 11.5695 23.8778C11.256 23.7001 11.008 23.4225 10.8634 23.0874C10.6868 22.6481 10.6034 22.1755 10.619 21.7008C10.5885 21.3014 10.6431 20.8999 10.779 20.5241C10.915 20.1483 11.1291 19.807 11.4066 19.5238C12.0737 18.9916 12.9119 18.7343 13.7558 18.8027C14.2033 18.7495 14.6567 18.7897 15.0885 18.9208C15.5203 19.0519 15.9216 19.2712 16.268 19.5654C16.7647 20.1837 17.0124 20.972 16.9605 21.7701C16.9916 22.2206 16.9171 22.6722 16.7432 23.0874C16.4783 23.4326 16.1328 23.7044 15.7384 23.8778ZM14.2446 26.138C14.2666 25.8458 14.2249 25.5521 14.1224 25.2783C14.0758 25.2095 14.0125 25.1542 13.9387 25.1178C13.865 25.0813 13.7832 25.065 13.7015 25.0703C13.6254 25.0652 13.5494 25.0819 13.4822 25.1187C13.415 25.1555 13.3592 25.2108 13.3213 25.2783C13.2174 25.5518 13.1757 25.8457 13.199 26.138V27.5247C13.1674 27.8456 13.2141 28.1695 13.3348 28.4676C13.3772 28.5373 13.4378 28.5937 13.5097 28.6304C13.5816 28.6672 13.6621 28.6828 13.7422 28.6756C13.8227 28.6863 13.9044 28.6722 13.977 28.6351C14.0496 28.5981 14.1097 28.5397 14.1496 28.4676C14.2356 28.1567 14.2678 27.8329 14.2446 27.5108V26.138ZM14.2446 21.4651C14.2651 21.2114 14.2327 20.9562 14.1496 20.7163C14.1093 20.6527 14.0522 20.6021 13.9849 20.5702C13.9177 20.5383 13.8429 20.5265 13.7694 20.536C13.6962 20.527 13.6221 20.5407 13.5567 20.5754C13.4913 20.61 13.4377 20.6639 13.4027 20.7301C13.3203 20.9655 13.2879 21.216 13.3077 21.4651V22.3248C13.2921 22.5613 13.3292 22.7984 13.4163 23.0181C13.4513 23.0843 13.5049 23.1383 13.5703 23.1729C13.6357 23.2075 13.7098 23.2212 13.783 23.2122C13.8545 23.2207 13.927 23.2083 13.9919 23.1764C14.0568 23.1445 14.1115 23.0944 14.1496 23.032C14.2329 22.7777 14.2653 22.5089 14.2446 22.2416V21.4651Z" fill="#E5A004"/>
<path d="M24.4427 22.824V26.568C24.4634 27.1951 24.4178 27.8227 24.3069 28.4399C24.2152 28.8432 24.0235 29.2157 23.7501 29.5215C23.4744 29.8537 23.1187 30.107 22.7181 30.2564C22.2802 30.4051 21.8216 30.4801 21.3602 30.4783C20.8035 30.4919 20.2485 30.4123 19.7171 30.2425C19.3137 30.1057 18.9561 29.8559 18.685 29.5215C18.4377 29.2132 18.2489 28.8605 18.1283 28.4815C17.998 27.9138 17.9432 27.3308 17.9653 26.7482V22.824C17.9316 22.0431 18.0186 21.2616 18.2234 20.5084C18.4162 19.9791 18.7867 19.5368 19.269 19.2604C19.847 18.9388 20.4986 18.7809 21.1565 18.8028C21.7108 18.7957 22.2606 18.9042 22.7724 19.1217C23.1845 19.2979 23.5515 19.5683 23.8452 19.9121C24.0787 20.2227 24.2411 20.5828 24.3205 20.9659C24.4194 21.5799 24.4603 22.2021 24.4427 22.824ZM21.7268 21.8811C21.7255 21.5162 21.6799 21.1529 21.591 20.7995C21.5564 20.722 21.4977 20.6583 21.4241 20.6182C21.3505 20.5782 21.266 20.5639 21.1836 20.5777C20.9799 20.5777 20.8442 20.5777 20.7898 20.8134C20.6948 21.1747 20.6581 21.5494 20.6812 21.9227V27.4693C20.6589 27.8648 20.6908 28.2615 20.7763 28.6479C20.8139 28.7189 20.8715 28.7768 20.9418 28.8139C21.012 28.851 21.0916 28.8656 21.1701 28.8559C21.2535 28.8642 21.3373 28.846 21.4102 28.8038C21.4831 28.7616 21.5415 28.6975 21.5774 28.6202C21.6645 28.2717 21.6966 27.9113 21.6725 27.5525L21.7268 21.8811Z" fill="#E5A004"/>
<path d="M31.8841 22.824V26.5679C31.9048 27.1951 31.8593 27.8227 31.7483 28.4399C31.6349 28.8476 31.4315 29.2233 31.1537 29.5382C30.8759 29.8531 30.5312 30.0988 30.1459 30.2564C29.7084 30.4066 29.2496 30.4816 28.788 30.4783C28.2359 30.4904 27.6855 30.4108 27.1585 30.2425C26.7511 30.106 26.3891 29.8563 26.1129 29.5215C25.8696 29.2127 25.6853 28.8599 25.5697 28.4815C25.4394 27.9138 25.3846 27.3308 25.4068 26.7482V22.824C25.373 22.0431 25.46 21.2616 25.6648 20.5084C25.8523 19.9759 26.2242 19.5319 26.7104 19.2604C27.2884 18.9388 27.94 18.7809 28.5979 18.8028C29.1522 18.7957 29.702 18.9042 30.2138 19.1217C30.6248 19.2928 30.9885 19.5642 31.273 19.9121C31.5161 20.2185 31.6837 20.5798 31.7619 20.9659C31.8608 21.5799 31.9018 22.2021 31.8841 22.824ZM29.1682 21.8811C29.1937 21.504 29.1617 21.125 29.0732 20.7579C29.0732 20.6054 28.8966 20.5361 28.6794 20.5361C28.5957 20.5257 28.511 20.543 28.4376 20.5854C28.3643 20.6278 28.3062 20.6932 28.272 20.7718C28.1918 21.1356 28.1598 21.5087 28.1769 21.8811V27.4277C28.147 27.8232 28.1791 28.2211 28.272 28.6063C28.3081 28.6787 28.3655 28.7377 28.4361 28.775C28.5068 28.8123 28.5871 28.826 28.6658 28.8143C28.7492 28.8226 28.8331 28.8044 28.906 28.7622C28.9789 28.72 29.0372 28.6559 29.0732 28.5786C29.1531 28.2289 29.185 27.8695 29.1682 27.5109V21.8811Z" fill="#E5A004"/>
<path d="M46.9028 37.3005C45.8515 37.3093 44.8087 37.1067 43.8339 36.7043C42.9058 36.3309 42.1006 35.6962 41.5119 34.8739C40.8921 33.9804 40.5772 32.9037 40.6156 31.8094C40.5629 30.9356 40.7815 30.067 41.2403 29.3274C41.6062 28.7608 42.1317 28.3208 42.7476 28.0655C43.2964 27.8434 43.8818 27.7304 44.4721 27.7327C43.9447 28.3055 43.5257 28.9731 43.2364 29.7018C42.9602 30.3833 42.8172 31.1134 42.8155 31.851C42.8114 32.5878 42.9789 33.315 43.3043 33.9726C43.6558 34.6196 44.178 35.1529 44.8116 35.5118C45.6099 35.9397 46.5044 36.1453 47.4053 36.108C48.3117 36.1085 49.21 35.9344 50.0532 35.595C50.8725 35.2878 51.6016 34.7724 52.1716 34.0974C52.7129 33.3963 52.9921 32.5213 52.9592 31.6292C52.9762 30.8187 52.7434 30.0232 52.2938 29.3551C51.8398 28.7234 51.2842 28.1748 50.6507 27.7327C49.9582 27.2474 49.2928 26.776 48.4373 26.3461C47.6752 25.9256 46.9362 25.4627 46.2239 24.9595C45.5639 24.4866 44.9896 23.9001 44.5265 23.2262C44.075 22.5227 43.843 21.6959 43.8611 20.855C43.8567 19.8775 44.0654 18.9112 44.4721 18.0263C44.8865 17.0431 45.4603 16.1383 46.1696 15.3501C46.935 14.4951 47.8578 13.8025 48.8854 13.3117C49.9925 12.7576 51.2102 12.4729 52.4432 12.4798C52.8908 12.4276 53.3442 12.4791 53.7697 12.6303C54.1951 12.7816 54.5818 13.0287 54.901 13.3533C55.3776 13.9828 55.6227 14.763 55.5936 15.5581C55.5946 16.3961 55.4663 17.2291 55.2133 18.0263C54.9733 18.8385 54.6737 19.6311 54.3171 20.3974C53.9505 21.174 53.611 21.7841 53.2987 22.3526C53.1447 22.3278 52.997 22.2722 52.8642 22.1889C52.7313 22.1056 52.6159 21.9963 52.5246 21.8673C52.3717 21.6187 52.296 21.3286 52.3074 21.0353C52.3174 20.53 52.4045 20.0295 52.5654 19.5516C52.7555 18.9969 52.9592 18.4284 53.19 17.8322C53.4209 17.2359 53.6246 16.6674 53.8011 16.0989C53.9749 15.6096 54.0667 15.094 54.0727 14.5736C54.08 14.398 54.0525 14.2228 53.9919 14.0584C53.9312 13.8939 53.8386 13.7437 53.7196 13.6168C53.3262 13.3292 52.8424 13.2008 52.3617 13.2563C51.4506 13.2559 50.554 13.4895 49.7545 13.9357C48.9514 14.3778 48.2337 14.9651 47.6361 15.669C47.0745 16.338 46.6165 17.0909 46.2782 17.9015C45.9686 18.5606 45.7975 19.2785 45.7758 20.0092C45.7579 20.7194 45.9891 21.4127 46.4276 21.9643C46.889 22.5465 47.4448 23.0436 48.0707 23.4342C48.7632 23.8779 49.4286 24.3216 50.2569 24.8208C51.0216 25.2474 51.7525 25.7342 52.4432 26.2768C53.109 26.7949 53.6753 27.4342 54.1134 28.1626C54.5593 28.9743 54.78 29.8947 54.7516 30.8249C54.7662 31.7958 54.5272 32.753 54.0591 33.5982C53.5999 34.4135 52.9691 35.1144 52.2123 35.6504C51.4356 36.2006 50.5786 36.6218 49.673 36.8984C48.7747 37.1739 47.8408 37.3094 46.9028 37.3005Z" fill="#B72618"/>
<path d="M55.0233 43.2353C54.9326 43.2268 54.8446 43.1989 54.7651 43.1535C54.6856 43.1082 54.6162 43.0463 54.5616 42.9718C54.4176 42.8059 54.2986 42.6189 54.2085 42.4172C54.154 42.3072 54.1129 42.1908 54.0863 42.0705C54.3715 41.0583 54.643 40.1708 54.9146 39.3805C55.1862 38.5901 55.4578 37.7858 55.7294 36.9538C56.001 36.1219 56.2726 35.1512 56.5306 34.028C56.7886 32.9049 57.0602 31.5321 57.3453 29.8681C57.6305 28.2042 57.9021 26.152 58.1872 23.6976C58.1911 23.5566 58.2284 23.4186 58.2959 23.2955C58.4317 23.203 58.5956 23.1636 58.7576 23.1846C58.964 23.1669 59.1717 23.1977 59.3647 23.2746C59.5577 23.3515 59.7309 23.4725 59.8711 23.6283C60.0823 23.9005 60.1972 24.2377 60.197 24.5851C60.1752 25.1018 60.1162 25.6163 60.0204 26.1242C59.8982 26.8591 59.7217 27.7327 59.5044 28.7311C59.8773 28.0143 60.3041 27.3282 60.7809 26.6789C61.2773 26.0147 61.873 25.4344 62.5462 24.9594C63.1751 24.4975 63.9306 24.2501 64.7053 24.2523C65.1172 24.2396 65.5268 24.3201 65.9048 24.4879C66.2827 24.6557 66.6197 24.9067 66.8916 25.2229C67.4793 25.9178 67.7853 26.8154 67.7471 27.7327C67.7332 28.6056 67.5533 29.4674 67.2175 30.2703C66.8527 31.1805 66.3585 32.0308 65.7509 32.7939C65.1253 33.5556 64.3653 34.1905 63.5103 34.6659C62.6348 35.163 61.6467 35.4164 60.6451 35.4008C60.2171 35.4165 59.7896 35.3555 59.3822 35.2205C59.0699 35.0957 58.9069 34.971 58.9069 34.8462C58.9069 34.7214 58.9069 34.7214 59.1242 34.7075H59.6538C60.46 34.709 61.2537 34.504 61.9623 34.1112C63.4568 33.2805 64.6301 31.9553 65.2892 30.3535C65.6144 29.6067 65.7854 28.7995 65.7916 27.9823C65.8093 27.3998 65.6683 26.8238 65.3843 26.3183C65.2513 26.0778 65.051 25.8833 64.809 25.7598C64.5671 25.6363 64.2946 25.5893 64.0263 25.625C63.4735 25.6323 62.935 25.806 62.4783 26.1242C61.9437 26.4912 61.4557 26.9244 61.0253 27.4138C60.6031 27.9518 60.2218 28.522 59.8847 29.1194C59.5724 29.5968 59.3042 30.1027 59.0835 30.6308C58.7304 32.1699 58.3638 33.6536 57.9971 35.068C57.6305 36.4824 57.291 37.8413 56.9651 38.9367C56.6392 40.0322 56.3269 41.0444 56.0553 41.7793C55.9236 42.2812 55.6976 42.7522 55.3899 43.166C55.2795 43.2325 55.1497 43.2571 55.0233 43.2353Z" fill="#B72618"/>
<path d="M70.8431 35.4286C70.5147 35.4533 70.1853 35.3969 69.8827 35.2642C69.5802 35.1314 69.3134 34.9262 69.105 34.6659C68.7025 34.1466 68.4954 33.4973 68.521 32.8356C68.5431 32.2361 68.6296 31.6409 68.7791 31.0607C68.965 30.2953 69.1917 29.5407 69.458 28.8005C69.7344 28.0347 70.061 27.2889 70.4357 26.568C70.7561 25.9465 71.1582 25.3727 71.6307 24.8624C71.9376 24.4887 72.3771 24.2544 72.8528 24.2107C73.0257 24.2061 73.1944 24.2651 73.3281 24.3771C73.3944 24.4434 73.4458 24.5236 73.4786 24.6122C73.5114 24.7008 73.5249 24.7957 73.5182 24.8902C73.453 25.3178 73.2953 25.7251 73.0565 26.0827C72.7442 26.6373 72.3776 27.2752 71.9566 27.9824C71.5334 28.7057 71.1657 29.4613 70.8567 30.2426C70.561 30.9584 70.4042 31.726 70.395 32.5028C70.338 33.02 70.4631 33.5411 70.748 33.9726C70.8997 34.1078 71.0764 34.2106 71.2677 34.2749C71.4589 34.3392 71.6609 34.3637 71.8615 34.347C72.6941 34.2779 73.4725 33.8978 74.0478 33.2793C75.0706 32.2236 75.8986 30.9882 76.4921 29.6325L76.7636 29.9375C76.309 31.4984 75.4394 32.9 74.2515 33.9865C73.3254 34.8753 72.1134 35.3881 70.8431 35.4286ZM74.4552 21.3681C74.1519 21.3747 73.8538 21.2877 73.5997 21.1185C73.4746 21.0385 73.3732 20.9253 73.3062 20.7909C73.2392 20.6566 73.2092 20.5062 73.2195 20.3559C73.2379 20.1204 73.3149 19.8936 73.4432 19.697C73.5716 19.5004 73.7469 19.3406 73.9527 19.2327C74.3869 18.9346 74.8962 18.7709 75.4193 18.7612C75.6748 18.7501 75.9271 18.823 76.139 18.9692C76.2357 19.0629 76.3103 19.1776 76.3573 19.3049C76.4044 19.4322 76.4226 19.5687 76.4106 19.7041C76.3952 19.9271 76.331 20.1437 76.2229 20.338C76.1149 20.5324 75.9655 20.6996 75.7859 20.8273C75.4231 21.1695 74.949 21.3622 74.4552 21.3681Z" fill="#B72618"/>
<path d="M81.1226 35.4285C80.5382 35.4631 79.9635 35.2642 79.5202 34.8739C79.3326 34.6979 79.1836 34.4833 79.083 34.2444C78.9823 34.0054 78.9323 33.7474 78.9363 33.4872C78.9446 32.822 79.0879 32.1657 79.3572 31.5598C79.6288 30.8804 79.914 30.1732 80.1856 29.5492C80.4326 28.9809 80.5665 28.3682 80.5794 27.7466C80.5911 27.4892 80.5487 27.2323 80.455 26.9931C80.3613 26.7539 80.2185 26.538 80.0362 26.3599C79.656 26.0456 79.2758 25.7544 78.8955 25.4864C78.4339 26.6927 77.9586 27.8436 77.4562 28.9252C76.9537 30.0068 76.5463 30.8249 76.2204 31.3796L75.9489 30.8526C76.2385 30.3257 76.6052 29.5492 77.0488 28.5231C77.4924 27.497 77.945 26.3322 78.4067 25.0288C78.3092 24.9316 78.2323 24.815 78.1809 24.6862C78.1295 24.5573 78.1047 24.4191 78.108 24.28C78.0841 23.7339 78.2636 23.1989 78.6104 22.7824C78.9499 22.3942 79.2079 22.2 79.3708 22.2C79.4139 22.1921 79.4582 22.1936 79.5007 22.2043C79.5433 22.215 79.5831 22.2348 79.6177 22.2622C79.6523 22.2897 79.6808 22.3243 79.7014 22.3637C79.7221 22.4032 79.7343 22.4466 79.7375 22.4912C79.752 22.6388 79.752 22.7874 79.7375 22.935C79.7109 23.1422 79.6513 23.3436 79.5609 23.5312C79.4892 23.7055 79.4346 23.8867 79.398 24.072C79.4097 24.2311 79.459 24.3848 79.5418 24.5201C79.6246 24.6554 79.7384 24.7681 79.8733 24.8485L80.9324 25.6528C81.345 25.9516 81.7073 26.3169 82.0052 26.7343C82.3302 27.2031 82.4927 27.7691 82.4669 28.3428C82.4608 28.9848 82.3364 29.6198 82.1003 30.2148C81.8422 30.8526 81.5978 31.4489 81.3398 32.0313C81.1156 32.4992 80.9863 33.0086 80.9596 33.5288C80.9421 33.6647 80.9577 33.8029 81.0051 33.9311C81.0525 34.0593 81.1301 34.1736 81.2312 34.2638C81.4203 34.3919 81.6425 34.4594 81.8694 34.4579C82.3993 34.4376 82.9145 34.275 83.3631 33.9864C83.8993 33.6585 84.3961 33.2675 84.8433 32.8217C85.3365 32.3676 85.7908 31.8712 86.2012 31.338C86.539 30.8895 86.8217 30.4006 87.0431 29.882L87.4369 30.1871C87.0301 31.0963 86.5048 31.9452 85.8753 32.7107C85.2313 33.4762 84.4755 34.1356 83.6347 34.6659C82.887 35.1626 82.0145 35.4274 81.1226 35.4285Z" fill="#B72618"/>
<path d="M88.5503 35.4285C88.2221 35.4521 87.893 35.3952 87.5907 35.2625C87.2883 35.1299 87.0214 34.9253 86.8122 34.6659C86.4229 34.1402 86.2216 33.4943 86.2419 32.8355C86.2571 32.2354 86.3437 31.6394 86.4999 31.0606C86.681 30.2954 86.9031 29.5408 87.1653 28.8004C87.4416 28.0347 87.7683 27.2888 88.143 26.5679C88.468 25.9494 88.8696 25.3762 89.3379 24.8624C89.4915 24.6757 89.6798 24.522 89.8919 24.4102C90.104 24.2983 90.3357 24.2305 90.5736 24.2107C90.742 24.2081 90.9058 24.2671 91.0353 24.377C91.104 24.4415 91.157 24.5214 91.19 24.6105C91.2231 24.6996 91.2352 24.7954 91.2254 24.8901C91.1602 25.3177 91.0025 25.7251 90.7637 26.0826C90.4514 26.6373 90.0848 27.2751 89.6638 27.9823C89.2407 28.7056 88.8729 29.4613 88.5639 30.2425C88.2749 30.9604 88.1183 31.7267 88.1022 32.5027C88.0416 33.0222 88.1723 33.5461 88.4689 33.9726C88.6197 34.1091 88.7963 34.2127 88.9878 34.2771C89.1792 34.3415 89.3816 34.3653 89.5824 34.347C90.4089 34.2808 91.1825 33.9055 91.755 33.2931C92.7784 32.2349 93.6104 31.0003 94.2129 29.6463L94.4845 29.9513C94.0247 31.5098 93.1559 32.9101 91.9723 34.0003C91.0373 34.8817 89.8222 35.3889 88.5503 35.4285ZM92.1624 21.3681C91.8591 21.3746 91.561 21.2877 91.3069 21.1185C91.1818 21.0384 91.0804 20.9252 91.0134 20.7909C90.9465 20.6566 90.9165 20.5062 90.9267 20.3558C90.9464 20.1189 91.0255 19.8912 91.1563 19.6945C91.2871 19.4978 91.4652 19.3388 91.6736 19.2326C92.1039 18.937 92.6081 18.7734 93.1265 18.7612C93.3823 18.7481 93.6351 18.8211 93.8462 18.9692C93.9429 19.0628 94.0175 19.1776 94.0645 19.3048C94.1116 19.4321 94.1298 19.5686 94.1178 19.7041C94.103 19.9256 94.0406 20.1412 93.935 20.3353C93.8294 20.5294 93.6832 20.6974 93.5067 20.8273C93.1371 21.167 92.6597 21.3591 92.1624 21.3681Z" fill="#B72618"/>
<path d="M96.1956 36.0525C95.8299 36.0759 95.4636 36.0187 95.1215 35.8847C94.7794 35.7507 94.4696 35.5431 94.213 35.276C93.7082 34.635 93.4607 33.8222 93.5205 33.0019C93.552 31.8766 93.7161 30.7592 94.0093 29.674C94.3488 28.3567 94.7562 26.9978 95.2586 25.6111L94.6883 25.5002C94.5128 25.4687 94.3402 25.4223 94.1723 25.3615V24.8069H94.7562L95.5031 24.8762C95.924 23.7669 96.3721 22.6992 96.861 21.6592C97.3498 20.6193 97.8115 19.7041 98.2189 18.886C98.6061 18.1979 99.0611 17.5521 99.5768 16.9585C100.011 16.4732 100.378 16.2375 100.677 16.2375C100.837 16.2353 100.992 16.2947 101.111 16.4039C101.181 16.4648 101.236 16.5418 101.272 16.6285C101.307 16.7153 101.322 16.8094 101.315 16.9031C101.222 17.5112 101.005 18.0924 100.677 18.6086C100.256 19.399 99.7398 20.3419 99.1151 21.3819C98.4905 22.4219 97.893 23.6421 97.3091 24.904H98.4226C99.088 24.904 99.7805 24.904 100.514 24.904C101.247 24.904 101.98 24.8346 102.727 24.7514V25.3061C101.627 25.4309 100.636 25.5279 99.767 25.5834C98.8979 25.6389 98.1103 25.6805 97.4313 25.6805H96.9832C96.5334 26.8 96.1569 27.9488 95.8561 29.1193C95.5501 30.2061 95.3903 31.3303 95.3808 32.4611C95.3314 33.1198 95.4681 33.7791 95.7746 34.3608C95.933 34.5679 96.1416 34.7293 96.3797 34.829C96.6179 34.9287 96.8774 34.9633 97.1326 34.9293C98.2915 34.8848 99.3898 34.3886 100.201 33.5427C101.339 32.4512 102.261 31.1474 102.917 29.7017L103.311 30.0068C102.845 31.1216 102.233 32.1665 101.492 33.1128C100.815 33.9805 99.9915 34.7177 99.0608 35.2899C98.1933 35.8101 97.2014 36.0741 96.1956 36.0525Z" fill="#B72618"/>
<path d="M105.362 36.205C104.567 36.2424 103.782 36.0188 103.121 35.5672C102.593 35.176 102.187 34.6364 101.953 34.0141C101.724 33.4272 101.604 32.8017 101.6 32.1699C101.577 31.6947 101.661 31.2204 101.845 30.7833C101.975 30.4881 102.176 30.2308 102.428 30.0345C102.639 29.8936 102.862 29.7729 103.094 29.674C103.254 29.6222 103.402 29.5372 103.528 29.4244C104.122 28.7524 104.676 28.0439 105.185 27.3028C105.701 26.5666 106.155 25.7873 106.543 24.9733V24.5989C106.498 24.035 106.631 23.4713 106.923 22.9904C107.012 22.8543 107.131 22.7411 107.27 22.6593C107.409 22.5776 107.564 22.5295 107.724 22.5189C107.788 22.5135 107.853 22.5218 107.914 22.5432C107.975 22.5647 108.03 22.599 108.077 22.6437C108.116 22.6787 108.146 22.7214 108.167 22.7692C108.188 22.8169 108.199 22.8687 108.2 22.9211C108.189 23.0853 108.162 23.248 108.118 23.4064C108.046 23.6867 108.014 23.9763 108.023 24.2661C108.038 25.0133 108.171 25.7531 108.417 26.457C108.67 27.252 108.928 28.084 109.191 28.9529C109.458 29.8519 109.591 30.7868 109.585 31.7262C109.599 31.9848 109.599 32.2441 109.585 32.5027C109.556 32.7461 109.511 32.987 109.449 33.2238C110.157 33.0492 110.81 32.6964 111.35 32.1977C112.107 31.4899 112.721 30.6372 113.156 29.6878L113.428 29.9929C113.124 31.0048 112.527 31.8991 111.717 32.5582C110.982 33.1223 110.125 33.4979 109.218 33.6536C108.952 34.4604 108.413 35.1438 107.697 35.581C106.989 36.002 106.181 36.2177 105.362 36.205ZM105.362 35.1235C105.695 35.0991 106.021 35.0146 106.326 34.8739C106.56 34.7477 106.764 34.5704 106.923 34.3548C107.083 34.1391 107.194 33.8903 107.249 33.6259C106.433 33.4693 105.666 33.1177 105.008 32.5998C104.437 32.1863 103.944 31.6693 103.555 31.0745C103.107 31.0745 102.89 31.4489 102.89 32.1422C102.889 32.8795 103.117 33.5981 103.542 34.1944C103.748 34.5062 104.031 34.7565 104.363 34.9197C104.694 35.0829 105.062 35.1533 105.429 35.1235H105.362ZM107.398 33.1267C107.398 32.9187 107.398 32.7107 107.493 32.4888C107.589 32.267 107.493 31.9897 107.493 31.6846C107.535 30.7224 107.462 29.7586 107.276 28.8143C107.045 27.8575 106.842 26.97 106.679 26.1242C106.217 26.9007 105.742 27.6495 105.226 28.3567C104.783 28.9784 104.298 29.5669 103.773 30.1177C104.096 30.8216 104.558 31.4495 105.131 31.9619C105.796 32.5516 106.602 32.9531 107.466 33.1267H107.398Z" fill="#B72618"/>
<path d="M113.875 29.3276C114.498 29.3276 115.003 28.8124 115.003 28.1767C115.003 27.5411 114.498 27.0258 113.875 27.0258C113.253 27.0258 112.748 27.5411 112.748 28.1767C112.748 28.8124 113.253 29.3276 113.875 29.3276Z" fill="url(#paint0_linear)"/>
<path d="M117.501 25.7082C118.304 25.7082 118.954 25.0439 118.954 24.2245C118.954 23.4051 118.304 22.7408 117.501 22.7408C116.699 22.7408 116.048 23.4051 116.048 24.2245C116.048 25.0439 116.699 25.7082 117.501 25.7082Z" fill="url(#paint1_linear)"/>
<path d="M109.843 16.5425C110.645 16.5425 111.296 15.8783 111.296 15.0588C111.296 14.2394 110.645 13.5751 109.843 13.5751C109.04 13.5751 108.39 14.2394 108.39 15.0588C108.39 15.8783 109.04 16.5425 109.843 16.5425Z" fill="url(#paint2_linear)"/>
<path d="M113.876 21.1877C114.873 21.1877 115.682 20.3621 115.682 19.3435C115.682 18.325 114.873 17.4993 113.876 17.4993C112.878 17.4993 112.07 18.325 112.07 19.3435C112.07 20.3621 112.878 21.1877 113.876 21.1877Z" fill="url(#paint3_linear)"/>
<path d="M113.876 12.4381C115.256 12.4381 116.374 11.2958 116.374 9.88668C116.374 8.47757 115.256 7.33527 113.876 7.33527C112.496 7.33527 111.377 8.47757 111.377 9.88668C111.377 11.2958 112.496 12.4381 113.876 12.4381Z" fill="url(#paint4_linear)"/>
<path d="M117.501 5.10282C118.881 5.10282 120 3.96051 120 2.55141C120 1.1423 118.881 0 117.501 0C116.121 0 115.003 1.1423 115.003 2.55141C115.003 3.96051 116.121 5.10282 117.501 5.10282Z" fill="url(#paint5_linear)"/>
</g>
<defs>
<linearGradient id="paint0_linear" x1="112.748" y1="28.1767" x2="115.003" y2="28.1767" gradientUnits="userSpaceOnUse">
<stop stop-color="#FFEF26"/>
<stop offset="0.02" stop-color="#FFEA21"/>
<stop offset="0.1" stop-color="#FED70F"/>
<stop offset="0.19" stop-color="#FDCC04"/>
<stop offset="0.28" stop-color="#FDC800"/>
<stop offset="0.67" stop-color="#E95F32"/>
<stop offset="1" stop-color="#E3312D"/>
</linearGradient>
<linearGradient id="paint1_linear" x1="116.048" y1="24.2245" x2="118.954" y2="24.2245" gradientUnits="userSpaceOnUse">
<stop stop-color="#FFEF26"/>
<stop offset="0.02" stop-color="#FFEA21"/>
<stop offset="0.1" stop-color="#FED70F"/>
<stop offset="0.19" stop-color="#FDCC04"/>
<stop offset="0.28" stop-color="#FDC800"/>
<stop offset="0.67" stop-color="#E95F32"/>
<stop offset="1" stop-color="#E3312D"/>
</linearGradient>
<linearGradient id="paint2_linear" x1="108.39" y1="15.0588" x2="111.296" y2="15.0588" gradientUnits="userSpaceOnUse">
<stop stop-color="#FFEF26"/>
<stop offset="0.02" stop-color="#FFEA21"/>
<stop offset="0.1" stop-color="#FED70F"/>
<stop offset="0.19" stop-color="#FDCC04"/>
<stop offset="0.28" stop-color="#FDC800"/>
<stop offset="0.67" stop-color="#E95F32"/>
<stop offset="1" stop-color="#E3312D"/>
</linearGradient>
<linearGradient id="paint3_linear" x1="112.07" y1="19.3435" x2="115.682" y2="19.3435" gradientUnits="userSpaceOnUse">
<stop stop-color="#FFEF26"/>
<stop offset="0.02" stop-color="#FFEA21"/>
<stop offset="0.1" stop-color="#FED70F"/>
<stop offset="0.19" stop-color="#FDCC04"/>
<stop offset="0.28" stop-color="#FDC800"/>
<stop offset="0.67" stop-color="#E95F32"/>
<stop offset="1" stop-color="#E3312D"/>
</linearGradient>
<linearGradient id="paint4_linear" x1="111.377" y1="9.88668" x2="116.374" y2="9.88668" gradientUnits="userSpaceOnUse">
<stop stop-color="#FFEF26"/>
<stop offset="0.02" stop-color="#FFEA21"/>
<stop offset="0.1" stop-color="#FED70F"/>
<stop offset="0.19" stop-color="#FDCC04"/>
<stop offset="0.28" stop-color="#FDC800"/>
<stop offset="0.67" stop-color="#E95F32"/>
<stop offset="1" stop-color="#E3312D"/>
</linearGradient>
<linearGradient id="paint5_linear" x1="115.003" y1="2.55141" x2="120" y2="2.55141" gradientUnits="userSpaceOnUse">
<stop stop-color="#FFEF26"/>
<stop offset="0.02" stop-color="#FFEA21"/>
<stop offset="0.1" stop-color="#FED70F"/>
<stop offset="0.19" stop-color="#FDCC04"/>
<stop offset="0.28" stop-color="#FDC800"/>
<stop offset="0.67" stop-color="#E95F32"/>
<stop offset="1" stop-color="#E3312D"/>
</linearGradient>
<clipPath id="clip0">
<rect width="120" height="43.2353" fill="white"/>
</clipPath>
</defs>
</svg>
